<?xml version="1.0" encoding="utf-8"?>
<!-- Generator: Adobe Illustrator 16.0.0, SVG Export Plug-In . SVG Version: 6.00 Build 0)  -->
<!DOCTYPE svg PUBLIC "-//W3C//DTD SVG 1.1//EN" "http://www.w3.org/Graphics/SVG/1.1/DTD/svg11.dtd">
<svg version="1.1" id="图层_1" xmlns="http://www.w3.org/2000/svg" xmlns:xlink="http://www.w3.org/1999/xlink" x="0px" y="0px"
	 width="960px" height="540px" viewBox="0 0 960 540" enable-background="new 0 0 960 540" xml:space="preserve">
<rect fill="none" width="960" height="540"/>
<g id="组_37">
	<path id="矩形_16" fill="#B9EDB1" d="M309.633,58.284L412.87,161.521c10.154,10.153,10.154,26.616,0,36.77l0,0
		c-10.153,10.153-26.616,10.153-36.77,0L272.863,95.053c-10.154-10.154-10.154-26.616,0-36.77l0,0
		C283.017,48.13,299.479,48.13,309.633,58.284z"/>
	<circle id="椭圆_1" fill="#B6EDAE" cx="480" cy="270" r="242"/>
	<path id="矩形_13" fill="#B9EDB1" d="M688.481,385.335l38.184,38.184c12.888,12.887,12.888,33.781,0,46.669l0,0
		c-12.887,12.887-33.781,12.887-46.669,0l-38.184-38.184c-12.888-12.888-12.888-33.782,0-46.669l0,0
		C654.7,372.447,675.595,372.447,688.481,385.335z"/>
	<path id="矩形_15" fill="#B9EDB1" d="M221.633,91.284L324.87,194.521c10.154,10.153,10.154,26.616,0,36.77l0,0
		c-10.153,10.153-26.616,10.153-36.77,0L184.863,128.053c-10.154-10.154-10.154-26.616,0-36.77l0,0
		C195.017,81.13,211.479,81.13,221.633,91.284z"/>
	<path id="矩形_14" fill="#B9EDB1" d="M689.844,291.881l57.275,57.275c7.615,7.615,7.615,19.962,0,27.577l0,0
		c-7.615,7.615-19.962,7.615-27.577,0l-57.275-57.275c-7.615-7.615-7.615-19.962,0-27.577l0,0
		C669.882,284.266,682.229,284.266,689.844,291.881z"/>
</g>
<g id="矩形_24" transform="matrix(0.996, 0.087, -0.087, 0.996, 397.632, 75.767)">
	<path fill="#FFC670" d="M27,0l194,0C235.911,0,248,12.088,248,27l0,248c0,14.911-12.088,27-27,27l-194,0
		C12.088,302,0,289.911,0,275L0,27C0,12.089,12.088,0,27,0z"/>
	<path fill="#3D3D63" d="M223.369,301.899c-0.783,0.068-1.579,0.103-2.369,0.103l-194,0C12.111,302.002-0.002,289.889-0.002,275
		l0-248C-0.003,12.892,10.587,1.328,24.631,0.101c0.783-0.068,1.58-0.103,2.369-0.103l194,0c14.889,0,27.002,12.113,27.002,27.002
		l0,248C248.003,289.108,237.413,300.672,223.369,301.899z M26.372,20.03c-3.572,0.312-6.37,3.373-6.37,6.97l0,248.001
		c0,3.858,3.14,6.998,6.999,6.998l193.999,0c3.863,0.007,6.999-3.192,6.998-6.998l0-248c-0.001-3.859-3.14-6.998-6.998-6.998l-194,0
		C26.788,20.002,26.579,20.011,26.372,20.03z"/>
</g>
<g id="矩形_23" transform="translate(332 127)">
	<path fill="#FFF6E6" d="M25,0h198c13.808,0,25,11.193,25,25v252c0,13.807-11.192,25-25,25H25c-13.807,0-25-11.193-25-25V25
		C0,11.193,11.193,0,25,0z"/>
	<path fill="#3D3D63" d="M223,302H25c-13.785,0-25-11.215-25-25V25C0,11.215,11.215,0,25,0h198c13.785,0,25,11.215,25,25v252
		C248,290.785,236.785,302,223,302z M25,20c-2.757,0-5,2.243-5,5v252c0,2.757,2.243,5,5,5h198c2.757,0,5-2.243,5-5V25
		c0-2.757-2.243-5-5-5H25z"/>
</g>
<path id="路径_95" fill="#FFB038" d="M351.995,379.563L411,389h48.529v20c0,0-79.65,0.113-105.759-0.111
	c-0.2-0.406-1.464-0.406-1.772-4.399C351.984,395.276,351.995,379.563,351.995,379.563z"/>
<rect x="360" y="356" fill="#FFC670" width="8" height="53"/>
<rect x="375" y="390" fill="#FFC670" width="8" height="19"/>
<path fill="#3D3D63" d="M498,469h-98c-2.761,0-5-2.238-5-5s2.239-5,5-5h98c2.762,0,5,2.238,5,5S500.762,469,498,469z"/>
<path fill="#3D3D63" d="M666,493H521c-2.762,0-5-2.238-5-5s2.238-5,5-5h145c2.762,0,5,2.238,5,5S668.762,493,666,493z"/>
<path fill="#3D3D63" d="M361,469h-67c-2.761,0-5-2.238-5-5s2.239-5,5-5h67c2.761,0,5,2.238,5,5S363.761,469,361,469z"/>
<path fill="#3D3D63" d="M541,469h-26c-2.762,0-5-2.238-5-5s2.238-5,5-5h26c2.762,0,5,2.238,5,5S543.762,469,541,469z"/>
<path fill="#3D3D63" d="M381,469c-1.32,0-2.6-0.53-3.54-1.46c-0.93-0.94-1.46-2.23-1.46-3.54c0-1.311,0.53-2.601,1.46-3.54
	c0.93-0.93,2.22-1.46,3.54-1.46c1.32,0,2.61,0.53,3.54,1.46c0.93,0.939,1.46,2.229,1.46,3.54c0,1.31-0.53,2.6-1.46,3.54
	C383.61,468.47,382.32,469,381,469z"/>
<path fill="#B9EDB1" d="M802,312.213c-0.512,0-1.023-0.195-1.414-0.586l-21.213-21.213c-0.781-0.781-0.781-2.047,0-2.828
	l21.213-21.213c0.781-0.781,2.047-0.781,2.828,0l21.213,21.213c0.781,0.781,0.781,2.047,0,2.828l-21.213,21.213
	C803.023,312.018,802.512,312.213,802,312.213z M783.615,289L802,307.385L820.385,289L802,270.615L783.615,289z"/>
<path fill="#B9EDB1" d="M228.101,218.9c-0.512,0-1.024-0.195-1.414-0.586l-9.899-9.899c-0.781-0.781-0.781-2.047,0-2.828
	l9.899-9.899c0.78-0.781,2.048-0.781,2.828,0l9.899,9.899c0.781,0.781,0.781,2.047,0,2.828l-9.899,9.899
	C229.125,218.705,228.613,218.9,228.101,218.9z M221.03,207l7.071,7.071l7.071-7.071l-7.071-7.071L221.03,207z"/>
<path fill="#FFFFFF" d="M691,328.9c-0.53,0-1.039-0.211-1.414-0.586l-9.899-9.9c-0.781-0.781-0.781-2.047,0-2.828l9.899-9.899
	c0.781-0.781,2.047-0.781,2.828,0l9.899,9.899c0.781,0.781,0.781,2.047,0,2.828l-9.899,9.9C692.039,328.689,691.53,328.9,691,328.9z
	 M683.929,317l7.071,7.072l7.071-7.072L691,309.929L683.929,317z"/>
<path fill="#FFFFFF" d="M544,67.9c-0.512,0-1.023-0.195-1.414-0.586l-9.899-9.899c-0.781-0.781-0.781-2.047,0-2.828l9.899-9.899
	c0.781-0.781,2.047-0.781,2.828,0l9.899,9.899c0.781,0.781,0.781,2.047,0,2.828l-9.899,9.899C545.023,67.705,544.512,67.9,544,67.9z
	 M536.929,56L544,63.071L551.071,56L544,48.93L536.929,56z"/>
<g id="椭圆_9" transform="translate(176 391)">
	<circle fill="#FFFFFF" cx="27.5" cy="27.5" r="27.5"/>
	<path fill="#B9EDB1" d="M27.5,55C12.336,55,0,42.663,0,27.5S12.336,0,27.5,0S55,12.337,55,27.5S42.664,55,27.5,55z M27.5,4
		C14.542,4,4,14.542,4,27.5S14.542,51,27.5,51S51,40.458,51,27.5S40.458,4,27.5,4z"/>
</g>
<g id="椭圆_10" transform="translate(194 100)">
	<circle fill="none" cx="13.5" cy="13.5" r="13.5"/>
	<path fill="#FFFFFF" d="M13.5,27C6.056,27,0,20.944,0,13.5S6.056,0,13.5,0S27,6.056,27,13.5S20.944,27,13.5,27z M13.5,4
		C8.262,4,4,8.262,4,13.5S8.262,23,13.5,23s9.5-4.262,9.5-9.5S18.738,4,13.5,4z"/>
</g>
<g id="椭圆_12" transform="translate(438 89)">
	<circle fill="none" cx="9.5" cy="9.5" r="9.5"/>
	<path fill="#FFFFFF" d="M9.5,19C4.262,19,0,14.738,0,9.5S4.262,0,9.5,0S19,4.262,19,9.5S14.738,19,9.5,19z M9.5,4
		C6.467,4,4,6.467,4,9.5S6.467,15,9.5,15S15,12.533,15,9.5S12.533,4,9.5,4z"/>
</g>
<g id="椭圆_13" transform="translate(662 34)">
	<circle fill="none" cx="15" cy="15" r="15"/>
	<path fill="#B9EDB1" d="M15,30C6.729,30,0,23.271,0,15S6.729,0,15,0s15,6.729,15,15S23.271,30,15,30z M15,4C8.935,4,4,8.935,4,15
		s4.935,11,11,11s11-4.935,11-11S21.065,4,15,4z"/>
</g>
<g id="椭圆_15" transform="translate(359 28)">
	<circle fill="none" cx="9" cy="9" r="9"/>
	<path fill="#B9EDB1" d="M9,18c-4.962,0-9-4.038-9-9s4.038-9,9-9s9,4.038,9,9S13.962,18,9,18z M9,4C6.243,4,4,6.243,4,9s2.243,5,5,5
		s5-2.243,5-5S11.757,4,9,4z"/>
</g>
<g id="椭圆_14" transform="translate(692 185)">
	<circle fill="none" cx="15" cy="15" r="15"/>
	<path fill="#FFFFFF" d="M15,30C6.729,30,0,23.271,0,15S6.729,0,15,0s15,6.729,15,15S23.271,30,15,30z M15,4C8.935,4,4,8.935,4,15
		s4.935,11,11,11s11-4.935,11-11S21.065,4,15,4z"/>
</g>
<path fill="#3D3D63" d="M510,222H402c-5.523,0-10-4.477-10-10s4.477-10,10-10h108c5.522,0,10,4.477,10,10S515.522,222,510,222z"/>
<path fill="#3D3D63" d="M481,188h-50c-5.523,0-10-4.477-10-10s4.477-10,10-10h50c5.522,0,10,4.477,10,10S486.522,188,481,188z"/>
<path fill="#3D3D63" d="M510,256H402c-5.523,0-10-4.477-10-10s4.477-10,10-10h108c5.522,0,10,4.477,10,10S515.522,256,510,256z"/>
<g>
	<path id="联合_1_1_" fill="#96DDFF" d="M403,426.996c-3.866,0-7-3.134-7-7V319.631c0-3.866,3.134-7,7-7h123.646l18.678-33.234
		H638v140.6c0,3.866-3.134,7-7,7H403z"/>
	<path fill="#3D3D63" d="M631,436.996H403c-9.374,0-17-7.626-17-17V319.631c0-9.374,7.626-17,17-17h117.795l15.811-28.134
		c1.771-3.15,5.104-5.101,8.718-5.101H638c5.522,0,10,4.478,10,10v140.6C648,429.37,640.374,436.996,631,436.996z M406,416.996h222
		v-127.6h-76.826l-15.811,28.134c-1.771,3.15-5.104,5.101-8.718,5.101H406V416.996z"/>
</g>
<path fill="#3D3D63" d="M604,390h-35c-5.522,0-10-4.478-10-10s4.478-10,10-10h35c5.522,0,10,4.478,10,10S609.522,390,604,390z"/>
<path id="路径_35" fill="#69BAF9" d="M406,387.563L527.812,397H628v20H406V387.563z"/>
<rect x="447" y="362" fill="#4DA6FF" width="8" height="55"/>
<rect x="425" y="382.5" fill="#4DA6FF" width="8" height="34.5"/>
<rect x="469" y="393" fill="#4DA6FF" width="8" height="24"/>
<rect x="491" y="398" fill="#4DA6FF" width="8" height="19"/>
<rect x="513" y="402" fill="#4DA6FF" width="8" height="15"/>
</svg>
