<?xml version="1.0" encoding="utf-8"?>
<!-- Generator: Adobe Illustrator 16.0.0, SVG Export Plug-In . SVG Version: 6.00 Build 0)  -->
<!DOCTYPE svg PUBLIC "-//W3C//DTD SVG 1.1//EN" "http://www.w3.org/Graphics/SVG/1.1/DTD/svg11.dtd">
<svg version="1.1" id="图层_1" xmlns="http://www.w3.org/2000/svg" xmlns:xlink="http://www.w3.org/1999/xlink" x="0px" y="0px"
	 width="960px" height="540px" viewBox="0 0 960 540" enable-background="new 0 0 960 540" xml:space="preserve">
<g id="组_766">
	<path id="路径_1806" opacity="0.2" fill="#69BAF9" enable-background="new    " d="M820,509.85c0-187.776-152.223-340-340-340
		c-187.777,0-340,152.223-340,340"/>
	<path id="路径_1807" opacity="0.5" fill="#69BAF9" enable-background="new    " d="M727.618,509.85
		c0-136.812-110.908-247.72-247.719-247.72c-136.812,0-247.72,110.908-247.72,247.72"/>
	<path id="路径_1808" opacity="0.7" fill="#69BAF9" enable-background="new    " d="M635.6,509.85
		c0.219-85.755-69.122-155.45-154.878-155.668c-85.755-0.219-155.45,69.122-155.669,154.878c0,0.263,0,0.526,0,0.79"/>
</g>
<g id="组_764" transform="translate(-72.295)">
	<path fill="#3D3D63" d="M807.295,510h-264c-2.761,0-5-2.238-5-5s2.239-5,5-5h264c2.762,0,5,2.238,5,5S810.057,510,807.295,510z"/>
	<path fill="#3D3D63" d="M886.295,510h-58c-2.762,0-5-2.238-5-5s2.238-5,5-5h58c2.762,0,5,2.238,5,5S889.057,510,886.295,510z"/>
	<path fill="#3D3D63" d="M491.295,510h-60c-2.761,0-5-2.238-5-5s2.239-5,5-5h60c2.761,0,5,2.238,5,5S494.056,510,491.295,510z"/>
	<path fill="#3D3D63" d="M396.295,510h-178c-2.761,0-5-2.238-5-5s2.239-5,5-5h178c2.761,0,5,2.238,5,5S399.056,510,396.295,510z"/>
	<ellipse id="椭圆_336" fill="#3D3D63" cx="514.295" cy="505" rx="5" ry="4"/>
</g>
<g id="联合_31" transform="translate(-4601 1378) rotate(90)">
	<path fill="#D4E5FA" d="M-991-4894c-46.869,0-85-37.907-85-84.5V-5276c0-16.543,13.458-30,30-30h110.001
		c16.541,0,29.998,13.457,29.998,30v297C-906.001-4931.907-944.131-4894-991-4894z"/>
	<path fill="#3D3D63" d="M-991-4904c41.355,0,74.999-33.421,74.999-75v-297c0-11.028-8.971-20-19.998-20H-1046
		c-11.028,0-20,8.972-20,20v297.5C-1066-4937.421-1032.354-4904-991-4904 M-991-4884c-52.467,0-95-42.308-95-94.5
		c0-0.166,0.001-0.334,0.002-0.5H-1086v-297c0-22.091,17.908-40,40-40h110.001c22.09,0,39.998,17.909,39.998,40v297h-0.001
		c0.001,0.166,0.001,0.334,0.001,0.5C-896.001-4926.309-938.533-4884-991-4884z"/>
</g>
<g id="椭圆_465" transform="translate(375 406) rotate(180)">
	<circle fill="#FFFFFF" cx="20" cy="20" r="20"/>
	<path fill="#3D3D63" d="M20,0c11.028,0,20,8.972,20,20s-8.972,20-20,20S0,31.028,0,20S8.972,0,20,0z M20,30c5.514,0,10-4.486,10-10
		s-4.486-10-10-10s-10,4.486-10,10S14.486,30,20,30z"/>
</g>
<path id="矩形_1272" fill="#7AC1FA" d="M695,332v110c0,11.046-8.954,20-20,20h-57l0,0V312l0,0h57C686.046,312,695,320.954,695,332
	z"/>
<g id="组_916" transform="translate(509.562 440.562) rotate(180)">
	<g id="椭圆_463" transform="translate(-0.438 -0.439)">
		<circle fill="#FBD45C" cx="55" cy="55" r="55"/>
		<path fill="#3D3D63" d="M55,0c30.327,0,55,24.673,55,55s-24.673,55-55,55S0,85.327,0,55S24.673,0,55,0z M55,100
			c24.813,0,45-20.187,45-45S79.813,10,55,10S10,30.187,10,55S30.187,100,55,100z"/>
	</g>
	<g id="组_914" transform="translate(35.256 27.865)">
		<path fill="#3D3D63" d="M0.307,32.696h38c3.313,0,6,2.687,6,6s-2.687,6-6,6h-38c-3.313,0-6-2.687-6-6S-3.006,32.696,0.307,32.696z
			"/>
		<path fill="#3D3D63" d="M6.307,32.696c3.313,0,6,2.687,6,6v13c0,3.313-2.687,6-6,6s-6-2.687-6-6v-13
			C0.307,35.383,2.994,32.696,6.307,32.696z"/>
		<path fill="#3D3D63" d="M32.307,32.696c3.313,0,6,2.687,6,6v13c0,3.313-2.687,6-6,6s-6-2.687-6-6v-13
			C26.307,35.383,28.994,32.696,32.307,32.696z"/>
		<path fill="#3D3D63" d="M0.307,15.696h38c3.313,0,6,2.687,6,6s-2.687,6-6,6h-38c-3.313,0-6-2.687-6-6S-3.006,15.696,0.307,15.696z
			"/>
		<path fill="#3D3D63" d="M19.307-6c3.313,0,6,2.687,6,6v37.19c0,3.313-2.687,6-6,6s-6-2.687-6-6V0C13.307-3.314,15.994-6,19.307-6z
			"/>
	</g>
</g>
<rect x="617.999" y="292.5" fill="#3D3D63" width="20" height="189.5"/>
<g id="组_917" transform="translate(-350 -6191.999)">
	<path fill="#3D3D63" d="M928,6556h-40c-4.418,0-8-3.582-8-8s3.582-8,8-8h40c4.418,0,8,3.582,8,8S932.418,6556,928,6556z"/>
	<path fill="#3D3D63" d="M928,6587h-40c-4.418,0-8-3.582-8-8s3.582-8,8-8h40c4.418,0,8,3.582,8,8S932.418,6587,928,6587z"/>
	<path fill="#3D3D63" d="M928,6618h-40c-4.418,0-8-3.582-8-8s3.582-8,8-8h40c4.418,0,8,3.582,8,8S932.418,6618,928,6618z"/>
</g>
<g id="联合_31-2" transform="translate(-2441.502 4607.897) rotate(45)">
	<path fill="#FFD28E" d="M-990.999-4894c-46.87,0-84.999-37.906-85.001-84.5l0.001-297.5c-0.001-16.542,13.457-30,29.998-30
		l110.002,0c16.541,0,29.999,13.458,29.998,30l0,297.001C-906-4931.906-944.131-4893.999-990.999-4894z"/>
	<path fill="#3D3D63" d="M-990.999-4903.999c41.355,0,74.999-33.42,74.999-74.999v-297.001c0-11.028-8.971-20-19.999-20H-1046
		c-11.028,0-20,8.972-20,20v297.5C-1065.999-4937.419-1032.355-4904-990.999-4903.999 M-990.999-4884
		c-52.467,0.001-95-42.308-94.999-94.5c0-0.166,0-0.334,0.001-0.499h-0.001l0-297.001c0-22.09,17.908-40,39.999-40l110.001,0
		c22.091,0,40,17.909,40,40l0,297.001h-0.001c0.001,0.166,0.001,0.334,0.001,0.499C-896-4926.308-938.532-4884-990.999-4884z"/>
</g>
<g id="椭圆_465-2" transform="translate(389.753 402.026) rotate(135)">
	<circle fill="#FFFFFF" cx="20" cy="20" r="20"/>
	<path fill="#3D3D63" d="M34.142,5.858C37.92,9.635,40,14.658,40,20c0.001,5.341-2.08,10.364-5.857,14.142S25.342,40,19.999,40
		c-5.342,0-10.364-2.08-14.141-5.858S0,25.342,0,19.999C0,14.658,2.08,9.636,5.858,5.858S14.658-0.001,20.001,0
		C25.342,0,30.365,2.08,34.142,5.858z M12.929,27.071C14.818,28.959,17.329,30,20,30c2.672,0,5.183-1.04,7.071-2.929
		C28.96,25.182,30,22.671,30,20s-1.04-5.183-2.929-7.072C25.182,11.04,22.67,10,20,10c-2.672,0-5.183,1.04-7.071,2.929
		S10,17.328,10,19.999C10,22.671,11.04,25.182,12.929,27.071z"/>
</g>
<path id="矩形_1272-2" fill="#FFAC6C" d="M563.701,123.426l77.781,77.782c7.811,7.811,7.811,20.474,0,28.284l-40.305,40.305l0,0
	L495.111,163.731l0,0l40.306-40.305C543.228,115.616,555.891,115.616,563.701,123.426z"/>
<g id="组_916-2" transform="translate(509.342 331.315) rotate(135)">
	<g id="椭圆_463-2" transform="translate(-0.438 -0.439)">
		<circle fill="#FFAC6C" cx="55" cy="55" r="55"/>
		<path fill="#3D3D63" d="M93.89,16.109C104.278,26.497,110,40.309,109.999,55c0,14.691-5.721,28.502-16.109,38.891
			C83.503,104.279,69.691,110,55,109.999c-14.691,0-28.504-5.72-38.892-16.108S0,69.69,0,54.999C0,24.673,24.672,0,54.999,0
			C69.69,0,83.502,5.721,93.89,16.109z M23.18,86.82C31.679,95.319,42.979,100,55,100c12.02,0,23.32-4.681,31.819-13.18
			S99.999,67.02,100,55c0-12.02-4.681-23.32-13.181-31.819S67.019,10,55,10c-24.813,0-45,20.187-45,45
			C9.999,67.02,14.68,78.32,23.18,86.82z"/>
	</g>
	<g id="组_914-2" transform="translate(35.256 27.865)">
		<path fill="#3D3D63" d="M42.549,34.454c1.086,1.086,1.757,2.586,1.757,4.243c0,3.314-2.686,6-6,6L0.306,44.696
			c-3.313,0-5.999-2.686-5.999-6.001c0-3.314,2.686-6,6-6l37.999,0.001C39.963,32.696,41.463,33.368,42.549,34.454z"/>
		<path fill="#3D3D63" d="M10.549,34.454c1.086,1.086,1.757,2.586,1.757,4.243v13c0,3.314-2.686,6-5.999,5.999
			c-3.314,0.001-6.001-2.686-6-6v-13c0-3.314,2.686-6,5.999-5.999C7.963,32.696,9.464,33.368,10.549,34.454z"/>
		<path fill="#3D3D63" d="M36.549,34.454c1.086,1.086,1.757,2.586,1.757,4.243v13c0,3.314-2.686,6-5.999,5.999
			c-3.314,0.001-6.001-2.686-6-6v-13c0-3.314,2.686-6,5.999-5.999C33.963,32.696,35.463,33.368,36.549,34.454z"/>
		<path fill="#3D3D63" d="M42.549,17.453c1.086,1.086,1.757,2.586,1.757,4.243c0,3.314-2.686,6-5.999,5.999h-38
			c-3.314,0.001-6.001-2.686-6-6c0-3.314,2.686-6,5.999-5.999h38C39.963,15.696,41.464,16.367,42.549,17.453z"/>
		<path fill="#3D3D63" d="M23.549-4.243C24.635-3.157,25.307-1.657,25.306,0V37.19c0,3.314-2.686,6-5.999,5.999
			c-3.314,0.001-6.001-2.686-6-6V0c0-3.314,2.686-6,5.999-5.999C20.963-6,22.463-5.328,23.549-4.243z"/>
	</g>
</g>
<rect x="460.642" y="199.87" transform="matrix(0.7071 0.7071 -0.7071 0.7071 311.0714 -331.252)" fill="#3D3D63" width="189.5" height="20.001"/>
<g id="组_917-2" transform="translate(-4788.389 -3750.811) rotate(-45)">
	<path fill="#3D3D63" d="M882.344,6553.655c-1.448-1.447-2.343-3.448-2.343-5.657c0-4.418,3.581-8,8-8l40,0c4.419,0,8,3.582,8,8
		c0,4.418-3.582,8-8,8l-40,0C885.791,6555.998,883.791,6555.103,882.344,6553.655z"/>
	<path fill="#3D3D63" d="M882.343,6584.655c-1.448-1.448-2.343-3.448-2.344-5.657c0-4.418,3.582-8,8-8l40,0c4.419,0.001,8,3.582,8,8
		c0,4.418-3.582,8-8,8L888,6586.999C885.791,6586.998,883.791,6586.103,882.343,6584.655z"/>
	<path fill="#3D3D63" d="M882.343,6615.655c-1.448-1.448-2.343-3.448-2.344-5.657c0.001-4.418,3.582-8,8-8l40,0
		c4.419,0,8,3.582,8.001,8c0,4.418-3.582,8-8,8h-40C885.791,6617.998,883.791,6617.103,882.343,6615.655z"/>
</g>
<g id="联合_31-3" transform="translate(283 50)">
	<path fill="#FAE17D" d="M95,422c-46.869,0-85-37.906-85-84.5v-297.5c0-16.542,13.458-30,30.001-30H150c16.542,0,30,13.458,30,30
		v297C180,384.094,141.869,422,95,422z"/>
	<path fill="#3D3D63" d="M95,412c41.355,0,75-33.421,75-75v-297c0-11.028-8.972-20-20-20H40.001C28.973,20,20,28.972,20,39.999
		v297.5C20,378.579,53.646,412,95,412 M95,432c-52.467,0-95-42.31-95-94.5c0-0.166,0-0.335,0.001-0.5H0v-297
		C0,17.908,17.91,0,40.001,0H150c22.092,0,40,17.908,40,40v297h-0.001c0,0.165,0.001,0.334,0.001,0.5C190,389.69,147.468,432,95,432
		z"/>
</g>
<g id="椭圆_465-3" transform="translate(397 390) rotate(90)">
	
		<ellipse transform="matrix(2.578893e-006 1 -1 2.578893e-006 39.9995 -2.956390e-004)" fill="#FFFFFF" cx="20" cy="20" rx="20" ry="20"/>
	<path fill="#3D3D63" d="M40,20c0,11.028-8.972,20-20,20S0,31.027,0,20S8.972,0,20,0S40,8.972,40,20z M10,20c0,5.514,4.486,10,10,10
		s10-4.486,10-10s-4.486-10-10-10S10,14.486,10,20z"/>
</g>
<path id="矩形_1272-3" fill="#FEB742" d="M323,70h110c11.046,0,20,8.954,20,20v57l0,0H303l0,0V90C303,78.954,311.954,70,323,70z"
	/>
<g id="组_916-3" transform="translate(432.001 255) rotate(90)">
	<g id="椭圆_463-3">
		
			<ellipse transform="matrix(2.578893e-006 1 -1 2.578893e-006 109.9995 -3.547668e-004)" fill="#FBD45C" cx="55" cy="55" rx="55" ry="55"/>
		<path fill="#3D3D63" d="M110,55c0,30.327-24.673,55-55,55S0,85.327,0,55S24.673,0,55,0S110,24.673,110,55z M10,55
			c0,24.813,20.187,45,45,45s45-20.187,45-45S79.813,10,55,10S10,30.187,10,55z"/>
	</g>
	<g id="组_914-3" transform="translate(36 28.304)">
		<path fill="#3D3D63" d="M44,38.696c0,3.313-2.687,6-6,6H0c-3.313,0-6-2.687-6-6s2.687-6,6-6h38C41.313,32.696,44,35.382,44,38.696
			z"/>
		<path fill="#3D3D63" d="M12,38.696v13c0,3.313-2.687,6-6,6s-6-2.687-6-6v-13c0-3.313,2.687-6,6-6S12,35.382,12,38.696z"/>
		<path fill="#3D3D63" d="M38,38.696v13c0,3.313-2.687,6-6,6s-6-2.687-6-6v-13c0-3.313,2.687-6,6-6S38,35.382,38,38.696z"/>
		<path fill="#3D3D63" d="M44,21.696c0,3.313-2.687,6-6,6H0c-3.313,0-6-2.687-6-6s2.687-6,6-6h38C41.313,15.696,44,18.382,44,21.696
			z"/>
		<path fill="#3D3D63" d="M25-0.001v37.19c0,3.313-2.687,6-6,6s-6-2.687-6-6v-37.19c0-3.313,2.687-6,6-6S25-3.314,25-0.001z"/>
	</g>
</g>
<rect x="283.5" y="127" fill="#3D3D63" width="189.5" height="20"/>
<g id="组_917-3" transform="translate(347.001 227) rotate(-90)">
	<path fill="#3D3D63" d="M-8,0c0-4.418,3.582-8,8-8h40c4.418,0,8,3.582,8,8s-3.582,8-8,8H0C-4.418,8-8,4.419-8,0z"/>
	<path fill="#3D3D63" d="M-8,31c0-4.418,3.582-8,8-8h40c4.418,0,8,3.582,8,8s-3.582,8-8,8H0C-4.418,39-8,35.419-8,31z"/>
	<path fill="#3D3D63" d="M-8,62c0-4.418,3.582-8,8-8h40c4.418,0,8,3.582,8,8s-3.582,8-8,8H0C-4.418,70-8,66.419-8,62z"/>
</g>
<g id="组_923" transform="translate(177 50)">
	<g id="组_781" transform="translate(93.213)">
		<path fill="#9BE09F" d="M32.693,20.346H0c-2.209,0-4-1.791-4-4s1.791-4,4-4h32.692c2.209,0,4,1.791,4,4
			S34.902,20.346,32.693,20.346z"/>
		<path fill="#9BE09F" d="M16.346,36.692c-2.209,0-4-1.791-4-4V0c0-2.209,1.791-4,4-4s4,1.791,4,4v32.692
			C20.346,34.901,18.555,36.692,16.346,36.692z"/>
	</g>
	<g id="组_782" transform="translate(117.96 127.696)">
		<g id="组_775" transform="translate(0 0)">
			<g id="组_770" transform="translate(20.007)">
				<path fill="#9BE09F" d="M0,44.014c-2.209,0-4-1.791-4-4v-7.322c0-2.209,1.791-4,4-4s4,1.791,4,4v7.322
					C4,42.223,2.209,44.014,0,44.014z"/>
				<path fill="#9BE09F" d="M0,11.322c-2.209,0-4-1.791-4-4V0c0-2.209,1.791-4,4-4s4,1.791,4,4v7.322C4,9.531,2.209,11.322,0,11.322
					z"/>
			</g>
			<g id="组_771" transform="translate(40.014 20.007) rotate(90)">
				<path fill="#9BE09F" d="M4,0v7.321c0,2.209-1.791,4-4,4s-4-1.791-4-4V0c0-2.209,1.791-4,4-4S4-2.209,4,0z"/>
				<path fill="#9BE09F" d="M4,32.691v7.322c0,2.209-1.791,4-4,4s-4-1.791-4-4v-7.322c0-2.209,1.791-4,4-4S4,30.482,4,32.691z"/>
			</g>
			<g id="组_772" transform="translate(34.154 34.154) rotate(135)">
				<path fill="#9BE09F" d="M2.828-2.829C3.552-2.105,3.999-1.105,4,0v7.322c0,2.209-1.791,4-4,4c-2.209-0.001-4-1.791-4-4V0
					c0-2.209,1.791-4,4-4C1.104-4,2.104-3.553,2.828-2.829z"/>
				<path fill="#9BE09F" d="M2.828,29.863C3.552,30.587,4,31.587,4,32.692l-0.001,7.322c0,2.209-1.791,4-4,4
					c-2.209-0.001-4-1.792-4-4L-4,32.692c0-2.209,1.791-4,4-4C1.104,28.692,2.105,29.14,2.828,29.863z"/>
			</g>
			<g id="组_773" transform="translate(34.154 5.86) rotate(45)">
				<path fill="#9BE09F" d="M2.829,42.842c-0.724,0.724-1.724,1.171-2.828,1.171c-2.209,0-4-1.791-4-4l0-7.321c0-2.21,1.791-4,4-4
					c2.209,0,4,1.791,4,4l0,7.321C4,41.118,3.553,42.118,2.829,42.842z"/>
				<path fill="#9BE09F" d="M2.829,10.15C2.105,10.874,1.105,11.322,0,11.322c-2.209,0-4-1.791-4-4l0-7.322c0-2.209,1.792-3.999,4-4
					c2.209,0,4,1.791,4,4l0,7.322C4,8.426,3.552,9.426,2.829,10.15z"/>
			</g>
		</g>
	</g>
	<g id="路径_1815" transform="translate(0 206.772)">
		<path fill="none" d="M16.951,0C7.589,0,0,7.589,0,16.951C0,26.311,7.589,33.9,16.951,33.9c9.361,0,16.95-7.589,16.95-16.949
			C33.9,7.589,26.311,0,16.951,0z"/>
		<path fill="#9BE09F" d="M16.95,8C12.015,8,8,12.015,8,16.95c0,4.935,4.015,8.95,8.95,8.95s8.95-4.016,8.95-8.95
			C25.9,12.015,21.885,8,16.95,8 M16.95,0C26.311,0,33.9,7.589,33.9,16.95c0,9.36-7.589,16.95-16.95,16.95S0,26.31,0,16.95
			C0,7.589,7.589,0,16.95,0z"/>
	</g>
	<g id="路径_1816" transform="translate(96.455 368.293)">
		<path fill="none" d="M14.127,0C6.325,0,0,6.325,0,14.127s6.325,14.127,14.127,14.127s14.127-6.325,14.127-14.127S21.93,0,14.127,0
			z"/>
		<path fill="#9BE09F" d="M14.127,8C10.749,8,8,10.749,8,14.127c0,3.379,2.749,6.127,6.127,6.127s6.127-2.748,6.127-6.127
			C20.254,10.749,17.506,8,14.127,8 M14.127,0c7.802,0,14.127,6.325,14.127,14.127S21.93,28.254,14.127,28.254S0,21.929,0,14.127
			S6.325,0,14.127,0z"/>
	</g>
	<g id="路径_1817" transform="translate(521.238 93.692)">
		<path fill="none" d="M20.356,0C9.114,0,0.001,9.114,0.001,20.356c0,11.243,9.113,20.356,20.355,20.356s20.356-9.113,20.356-20.356
			C40.713,9.114,31.598,0,20.356,0z"/>
		<path fill="#9BE09F" d="M20.356,8C13.544,8,8.001,13.543,8.001,20.356s5.543,12.356,12.355,12.356
			c6.813,0,12.355-5.543,12.355-12.356S27.17,8,20.356,8 M20.356,0c11.242,0,20.355,9.114,20.355,20.356
			s-9.113,20.356-20.355,20.356S0.001,31.598,0.001,20.356S9.114,0,20.356,0z"/>
	</g>
	<g id="组_783" transform="translate(581.172 322.474)">
		<path fill="#9BE09F" d="M24.703,17.301H0c-2.209,0-4-1.791-4-4s1.791-4,4-4h24.703c2.209,0,4,1.791,4,4
			S26.912,17.301,24.703,17.301z"/>
		<path fill="#9BE09F" d="M12.353,28.703c-2.209,0-4-1.791-4-4V0.001c0-2.209,1.791-4,4-4s4,1.791,4,4v24.702
			C16.353,26.912,14.562,28.703,12.353,28.703z"/>
	</g>
</g>
</svg>
