<?xml version="1.0" encoding="utf-8"?>
<!-- Generator: Adobe Illustrator 16.0.0, SVG Export Plug-In . SVG Version: 6.00 Build 0)  -->
<!DOCTYPE svg PUBLIC "-//W3C//DTD SVG 1.1//EN" "http://www.w3.org/Graphics/SVG/1.1/DTD/svg11.dtd">
<svg version="1.1" id="图层_1" xmlns="http://www.w3.org/2000/svg" xmlns:xlink="http://www.w3.org/1999/xlink" x="0px" y="0px"
	 width="960px" height="540px" viewBox="0 0 960 540" enable-background="new 0 0 960 540" xml:space="preserve">
<rect fill="none" width="960" height="540"/>
<g id="组_51">
	<path id="矩形_13" fill="#B6EDAE" d="M688.481,385.335l38.184,38.184c12.888,12.887,12.888,33.781,0,46.669l0,0
		c-12.887,12.887-33.781,12.887-46.669,0l-38.184-38.184c-12.888-12.888-12.888-33.782,0-46.669l0,0
		C654.7,372.447,675.595,372.447,688.481,385.335z"/>
	<path id="矩形_15" fill="#B6EDAE" d="M221.633,91.284L324.87,194.521c10.154,10.153,10.154,26.616,0,36.77l0,0
		c-10.153,10.153-26.616,10.153-36.77,0L184.863,128.053c-10.154-10.154-10.154-26.616,0-36.77l0,0
		C195.017,81.13,211.479,81.13,221.633,91.284z"/>
	<path id="矩形_16" fill="#B6EDAE" d="M309.633,58.284L412.87,161.521c10.154,10.153,10.154,26.616,0,36.77l0,0
		c-10.153,10.153-26.616,10.153-36.77,0L272.863,95.053c-10.154-10.154-10.154-26.616,0-36.77l0,0
		C283.017,48.13,299.479,48.13,309.633,58.284z"/>
	<path id="矩形_14" fill="#B6EDAE" d="M689.844,291.881l57.275,57.275c7.615,7.615,7.615,19.962,0,27.577l0,0
		c-7.615,7.615-19.962,7.615-27.577,0l-57.275-57.275c-7.615-7.615-7.615-19.962,0-27.577l0,0
		C669.882,284.266,682.229,284.266,689.844,291.881z"/>
	<circle id="椭圆_1" fill="#B6EDAE" cx="480" cy="270" r="242"/>
</g>
<g id="组_60">
	<path fill="#3D3D63" d="M556,463h-98c-2.761,0-5-2.238-5-5s2.239-5,5-5h98c2.762,0,5,2.238,5,5S558.762,463,556,463z"/>
	<path fill="#3D3D63" d="M589,487H480c-2.761,0-5-2.238-5-5s2.239-5,5-5h109c2.762,0,5,2.238,5,5S591.762,487,589,487z"/>
	<path fill="#3D3D63" d="M403,463h-67c-2.761,0-5-2.238-5-5s2.239-5,5-5h67c2.761,0,5,2.238,5,5S405.761,463,403,463z"/>
	<path fill="#3D3D63" d="M701,487h-56c-2.762,0-5-2.238-5-5s2.238-5,5-5h56c2.762,0,5,2.238,5,5S703.762,487,701,487z"/>
	<path fill="#3D3D63" d="M439,487H283c-2.761,0-5-2.238-5-5s2.239-5,5-5h156c2.761,0,5,2.238,5,5S441.761,487,439,487z"/>
	<path fill="#3D3D63" d="M431,463c-1.32,0-2.6-0.53-3.54-1.47c-0.93-0.931-1.46-2.211-1.46-3.53c0-1.32,0.53-2.601,1.46-3.54
		c0.93-0.93,2.22-1.46,3.54-1.46c1.32,0,2.61,0.53,3.54,1.46c0.93,0.939,1.46,2.22,1.46,3.54c0,1.319-0.53,2.6-1.46,3.53
		C433.61,462.47,432.32,463,431,463z"/>
	<path fill="#3D3D63" d="M621,487c-1.311,0-2.601-0.53-3.54-1.47c-0.93-0.931-1.46-2.211-1.46-3.53c0-1.32,0.53-2.601,1.46-3.54
		c0.93-0.93,2.22-1.46,3.54-1.46c1.319,0,2.609,0.53,3.54,1.46c0.93,0.939,1.46,2.229,1.46,3.54c0,1.319-0.53,2.6-1.46,3.53
		C623.6,486.47,622.31,487,621,487z"/>
</g>
<g id="组_59">
	<path fill="#B6EDAE" d="M802,312.213c-0.512,0-1.023-0.195-1.414-0.586l-21.213-21.213c-0.781-0.781-0.781-2.047,0-2.828
		l21.213-21.213c0.781-0.781,2.047-0.781,2.828,0l21.213,21.213c0.781,0.781,0.781,2.047,0,2.828l-21.213,21.213
		C803.023,312.018,802.512,312.213,802,312.213z M783.615,289L802,307.385L820.385,289L802,270.615L783.615,289z"/>
	<path fill="#B6EDAE" d="M228.101,218.9c-0.512,0-1.024-0.195-1.414-0.586l-9.899-9.899c-0.781-0.781-0.781-2.047,0-2.828
		l9.899-9.899c0.78-0.781,2.048-0.781,2.828,0l9.899,9.899c0.781,0.781,0.781,2.047,0,2.828l-9.899,9.899
		C229.125,218.705,228.613,218.9,228.101,218.9z M221.03,207l7.071,7.071l7.071-7.071l-7.071-7.071L221.03,207z"/>
	<path fill="#FFFFFF" d="M691,328.9c-0.53,0-1.039-0.211-1.414-0.586l-9.899-9.9c-0.781-0.781-0.781-2.047,0-2.828l9.899-9.899
		c0.781-0.781,2.047-0.781,2.828,0l9.899,9.899c0.781,0.781,0.781,2.047,0,2.828l-9.899,9.9C692.039,328.689,691.53,328.9,691,328.9
		z M683.929,317l7.071,7.072l7.071-7.072L691,309.929L683.929,317z"/>
	<path fill="#FFFFFF" d="M544,67.9c-0.512,0-1.023-0.195-1.414-0.586l-9.899-9.899c-0.781-0.781-0.781-2.047,0-2.828l9.899-9.899
		c0.781-0.781,2.047-0.781,2.828,0l9.899,9.899c0.781,0.781,0.781,2.047,0,2.828l-9.899,9.899C545.023,67.705,544.512,67.9,544,67.9
		z M536.929,56L544,63.071L551.071,56L544,48.93L536.929,56z"/>
	<g id="椭圆_9" transform="translate(176 391)">
		<circle fill="none" cx="27.5" cy="27.5" r="27.5"/>
		<path fill="#B6EDAE" d="M27.5,55C12.336,55,0,42.663,0,27.5S12.336,0,27.5,0S55,12.337,55,27.5S42.664,55,27.5,55z M27.5,4
			C14.542,4,4,14.542,4,27.5S14.542,51,27.5,51S51,40.458,51,27.5S40.458,4,27.5,4z"/>
	</g>
	<g id="椭圆_10" transform="translate(194 100)">
		<circle fill="none" cx="13.5" cy="13.5" r="13.5"/>
		<path fill="#FFFFFF" d="M13.5,27C6.056,27,0,20.944,0,13.5S6.056,0,13.5,0S27,6.056,27,13.5S20.944,27,13.5,27z M13.5,4
			C8.262,4,4,8.262,4,13.5S8.262,23,13.5,23s9.5-4.262,9.5-9.5S18.738,4,13.5,4z"/>
	</g>
	<g id="椭圆_11" transform="translate(306 437)">
		<circle fill="none" cx="13.5" cy="13.5" r="13.5"/>
		<path fill="#FFFFFF" d="M13.5,27C6.056,27,0,20.944,0,13.5S6.056,0,13.5,0S27,6.056,27,13.5S20.944,27,13.5,27z M13.5,4
			C8.262,4,4,8.262,4,13.5S8.262,23,13.5,23s9.5-4.262,9.5-9.5S18.738,4,13.5,4z"/>
	</g>
	<g id="椭圆_12" transform="translate(438 89)">
		<circle fill="none" cx="9.5" cy="9.5" r="9.5"/>
		<path fill="#FFFFFF" d="M9.5,19C4.262,19,0,14.738,0,9.5S4.262,0,9.5,0S19,4.262,19,9.5S14.738,19,9.5,19z M9.5,4
			C6.467,4,4,6.467,4,9.5S6.467,15,9.5,15S15,12.533,15,9.5S12.533,4,9.5,4z"/>
	</g>
	<g id="椭圆_13" transform="translate(662 34)">
		<circle fill="none" cx="15" cy="15" r="15"/>
		<path fill="#B6EDAE" d="M15,30C6.729,30,0,23.271,0,15S6.729,0,15,0s15,6.729,15,15S23.271,30,15,30z M15,4C8.935,4,4,8.935,4,15
			s4.935,11,11,11s11-4.935,11-11S21.065,4,15,4z"/>
	</g>
	<g id="椭圆_15" transform="translate(359 28)">
		<circle fill="none" cx="9" cy="9" r="9"/>
		<path fill="#B6EDAE" d="M9,18c-4.962,0-9-4.038-9-9s4.038-9,9-9s9,4.038,9,9S13.962,18,9,18z M9,4C6.243,4,4,6.243,4,9
			s2.243,5,5,5s5-2.243,5-5S11.757,4,9,4z"/>
	</g>
	<g id="椭圆_14" transform="translate(692 185)">
		<circle fill="none" cx="15" cy="15" r="15"/>
		<path fill="#FFFFFF" d="M15,30C6.729,30,0,23.271,0,15S6.729,0,15,0s15,6.729,15,15S23.271,30,15,30z M15,4C8.935,4,4,8.935,4,15
			s4.935,11,11,11s11-4.935,11-11S21.065,4,15,4z"/>
	</g>
</g>
<path fill="#3D3D63" d="M658,437H302c-3.313,0-6-2.687-6-6s2.687-6,6-6h356c3.313,0,6,2.687,6,6S661.313,437,658,437z"/>
<path fill="#FDE174" d="M332.1,130.217h67.8c12.482,0,22.6,10.118,22.6,22.6v274.967l0,0h-113l0,0V152.816
	C309.5,140.335,319.618,130.217,332.1,130.217z"/>
<path fill="#3D3D63" d="M414,437h-96c-6.617,0-12-5.383-12-12V145c0-13.233,10.767-24,24-24h72c13.233,0,24,10.767,24,24v280
	C426,431.617,420.617,437,414,437z M330,133c-6.617,0-12,5.383-12,12v280h96.007L414,145c0-6.617-5.383-12-12-12H330z"/>
<g id="矩形_69" transform="translate(329 146)">
	<path fill="#F4F1EC" d="M17,0h40c9.389,0,17,7.611,17,17v153c0,9.389-7.611,17-17,17H17c-9.389,0-17-7.611-17-17V17
		C0,7.611,7.611,0,17,0z"/>
	<path fill="#3D3D63" d="M57,187H17c-9.374,0-17-7.626-17-17V17C0,7.626,7.626,0,17,0h40c9.374,0,17,7.626,17,17v153
		C74,179.374,66.374,187,57,187z M17,12c-2.757,0-5,2.243-5,5v153c0,2.757,2.243,5,5,5h40c2.757,0,5-2.243,5-5V17
		c0-2.757-2.243-5-5-5H17z"/>
</g>
<path fill="#3D3D63" d="M380.5,185.5h-29c-2.761,0-5-2.239-5-5s2.239-5,5-5h29c2.761,0,5,2.239,5,5S383.261,185.5,380.5,185.5z"/>
<path fill="#3D3D63" d="M380.5,201.5h-29c-2.761,0-5-2.239-5-5s2.239-5,5-5h29c2.761,0,5,2.239,5,5S383.261,201.5,380.5,201.5z"/>
<path fill="#3D3D63" d="M380.5,217.5h-29c-2.761,0-5-2.239-5-5s2.239-5,5-5h29c2.761,0,5,2.239,5,5S383.261,217.5,380.5,217.5z"/>
<path fill="#3D3D63" d="M380.5,293.5h-29c-2.761,0-5-2.238-5-5s2.239-5,5-5h29c2.761,0,5,2.238,5,5S383.261,293.5,380.5,293.5z"/>
<path fill="#FDE174" d="M544.955,127.441l68.174-9.581c12.55-1.764,24.155,6.98,25.919,19.531l38.857,276.484l0,0l-113.624,15.969
	l0,0l-38.857-276.484C523.66,140.809,532.404,129.205,544.955,127.441z"/>
<path fill="#3D3D63" d="M572.777,435.447c-5.942,0-11.047-4.441-11.874-10.331l-38.969-277.275
	c-0.893-6.348,0.74-12.664,4.599-17.784c3.857-5.12,9.479-8.431,15.827-9.323l71.3-10.021c1.113-0.156,2.245-0.235,3.363-0.235
	c11.88,0,22.088,8.882,23.743,20.662l38.968,277.275c0.447,3.173-0.37,6.331-2.3,8.892c-1.929,2.561-4.739,4.216-7.913,4.661
	l-95.065,13.36C573.901,435.407,573.337,435.447,572.777,435.447z M617.023,122.479c-0.562,0-1.131,0.04-1.693,0.119l-71.3,10.02
	c-3.174,0.446-5.984,2.102-7.913,4.662c-1.93,2.56-2.746,5.718-2.3,8.892l38.969,277.275l95.065-13.36l-38.968-277.275
	C628.056,126.92,622.957,122.479,617.023,122.479z"/>
<g id="矩形_69-2" transform="translate(544.85 145.631) rotate(-8)">
	<path fill="#F4F1EC" d="M17,0l40,0C66.389,0,74,7.611,74,17l0,153c0,9.389-7.611,17-17,17L17,187c-9.389,0-17-7.611-17-17L0,17
		C0,7.611,7.611,0,17,0z"/>
	<path fill="#3D3D63" d="M14.621,186.834C6.286,185.663,0.001,178.426,0,170L0,17C0,7.626,7.626,0,17,0l40,0
		c0.796,0,1.596,0.056,2.38,0.166c8.336,1.172,14.621,8.409,14.62,16.835L74,170c0,4.541-1.768,8.81-4.979,12.021
		C65.81,185.232,61.541,187,57,187L17,187C16.204,187,15.404,186.945,14.621,186.834z M57.71,12.049C57.477,12.016,57.238,12,57,12
		l-40,0c-2.757,0.001-5.001,2.243-5,5L12,170c0,2.714,2.258,5.001,5.001,5.001L57,175c1.336-0.001,2.592-0.52,3.536-1.465
		C61.48,172.591,62,171.336,62,170L62,17C62,14.521,60.155,12.393,57.71,12.049z"/>
</g>
<path fill="#3D3D63" d="M571.927,181.665c-2.453,0-4.595-1.806-4.945-4.305c-0.385-2.734,1.521-5.263,4.255-5.647l28.718-4.036
	c2.739-0.385,5.264,1.521,5.647,4.255c0.385,2.734-1.521,5.263-4.255,5.647l-28.718,4.036
	C572.393,181.648,572.158,181.665,571.927,181.665z"/>
<path fill="#3D3D63" d="M574.153,197.508c-2.453,0-4.595-1.806-4.945-4.305c-0.385-2.734,1.521-5.263,4.255-5.647l28.718-4.036
	c2.738-0.383,5.264,1.521,5.647,4.255c0.385,2.734-1.521,5.263-4.255,5.647l-28.719,4.036
	C574.619,197.492,574.385,197.508,574.153,197.508z"/>
<path fill="#3D3D63" d="M576.38,213.353c-2.453,0-4.595-1.806-4.945-4.305c-0.385-2.734,1.521-5.263,4.255-5.647l28.718-4.036
	c2.743-0.385,5.264,1.521,5.647,4.255c0.385,2.734-1.521,5.263-4.255,5.647l-28.718,4.036
	C576.846,213.336,576.611,213.353,576.38,213.353z"/>
<path fill="#3D3D63" d="M586.957,288.614c-2.453,0-4.595-1.807-4.945-4.305c-0.385-2.735,1.521-5.264,4.255-5.647l28.718-4.036
	c2.74-0.382,5.264,1.521,5.647,4.255c0.385,2.735-1.521,5.264-4.255,5.647l-28.718,4.036
	C587.423,288.598,587.188,288.614,586.957,288.614z"/>
<path fill="#F6716F" d="M439.899,129.337h68.201c12.556,0,22.733,10.178,22.733,22.734v276.592l0,0H417.166l0,0V152.071
	C417.166,139.515,427.344,129.337,439.899,129.337z"/>
<path fill="#3D3D63" d="M522,437h-96c-6.617,0-12-5.383-12-12V145c0-13.233,10.767-24,24-24h72c13.233,0,24,10.767,24,24v280
	C534,431.617,528.617,437,522,437z M438,133c-6.617,0-12,5.383-12,12v280h96.008L522,145c0-6.617-5.383-12-12-12H438z"/>
<g id="矩形_69-3" transform="translate(437 146)">
	<path fill="#F4F1EC" d="M17,0h40c9.389,0,17,7.611,17,17v153c0,9.389-7.611,17-17,17H17c-9.389,0-17-7.611-17-17V17
		C0,7.611,7.611,0,17,0z"/>
	<path fill="#3D3D63" d="M57,187H17c-9.374,0-17-7.626-17-17V17C0,7.626,7.626,0,17,0h40c9.374,0,17,7.626,17,17v153
		C74,179.374,66.374,187,57,187z M17,12c-2.757,0-5,2.243-5,5v153c0,2.757,2.243,5,5,5h40c2.757,0,5-2.243,5-5V17
		c0-2.757-2.243-5-5-5H17z"/>
</g>
<path fill="#3D3D63" d="M488.5,185.5h-29c-2.761,0-5-2.239-5-5s2.239-5,5-5h29c2.762,0,5,2.239,5,5S491.262,185.5,488.5,185.5z"/>
<path fill="#3D3D63" d="M488.5,201.5h-29c-2.761,0-5-2.239-5-5s2.239-5,5-5h29c2.762,0,5,2.239,5,5S491.262,201.5,488.5,201.5z"/>
<path fill="#3D3D63" d="M488.5,217.5h-29c-2.761,0-5-2.239-5-5s2.239-5,5-5h29c2.762,0,5,2.239,5,5S491.262,217.5,488.5,217.5z"/>
<path fill="#3D3D63" d="M488.5,293.5h-29c-2.761,0-5-2.238-5-5s2.239-5,5-5h29c2.762,0,5,2.238,5,5S491.262,293.5,488.5,293.5z"/>
<rect id="矩形_71" x="318" y="393" fill="#F2D053" width="96" height="32"/>
<rect id="矩形_72" x="426" y="395" fill="#EC5232" width="96" height="32"/>
<rect id="矩形_73" x="570" y="385" transform="matrix(-0.9903 0.1392 -0.1392 -0.9903 1285.7925 712.0901)" fill="#F2D053" width="96" height="32"/>
<g id="组_17" transform="translate(379.5 425) rotate(-90)">
	<rect x="17" y="-4" fill="#FFB038" width="8" height="42"/>
	<rect x="9" y="-13" fill="#FFB038" width="8" height="26"/>
</g>
<g id="组_65" transform="translate(486.5 427) rotate(-90)">
	<rect x="17" y="-4" fill="#FF6848" width="8" height="42"/>
	<rect x="9" y="-13" fill="#FF6848" width="8" height="26"/>
</g>
<g id="组_18" transform="translate(338.5 425) rotate(-90)">
	<rect x="17" y="-4" fill="#FFB038" width="8" height="42"/>
	<rect x="9" y="-13" fill="#FFB038" width="8" height="26"/>
</g>
<g id="组_69" transform="translate(-45.003 90.227) rotate(-8)">
	<g id="组_67" transform="translate(625.5 416) rotate(-90)">
		<rect x="0" y="13" transform="matrix(0.1392 0.9903 -0.9903 0.1392 34.9117 -6.1613)" fill="#FFB038" width="42" height="8"/>
		<rect x="0" y="-4" transform="matrix(0.1392 0.9903 -0.9903 0.1392 11.191 -12.8731)" fill="#FFB038" width="26" height="8"/>
	</g>
	<g id="组_68" transform="translate(584.5 416) rotate(-90)">
		<rect x="0" y="13" transform="matrix(0.1392 0.9903 -0.9903 0.1392 34.9122 -6.1611)" fill="#FFB038" width="41.999" height="8"/>
		<rect x="0" y="-4" transform="matrix(0.1392 0.9903 -0.9903 0.1392 11.1905 -12.8732)" fill="#FFB038" width="26" height="8"/>
	</g>
</g>
<g id="组_66" transform="translate(445.5 427) rotate(-90)">
	<rect x="17" y="-4" fill="#FF6848" width="8" height="42"/>
	<rect x="9" y="-13" fill="#FF6848" width="8" height="26"/>
</g>
<g id="椭圆_31" transform="translate(335 344)">
	<circle fill="#B6BDC6" cx="31" cy="31" r="31"/>
	<path fill="#3D3D63" d="M31,62C13.907,62,0,48.094,0,31S13.907,0,31,0s31,13.906,31,31S48.093,62,31,62z M31,12
		c-10.477,0-19,8.523-19,19s8.523,19,19,19s19-8.523,19-19S41.477,12,31,12z"/>
</g>
<g id="椭圆_31-2" transform="translate(443 344)">
	<circle fill="#B6BDC6" cx="31" cy="31" r="31"/>
	<path fill="#3D3D63" d="M31,62C13.907,62,0,48.094,0,31S13.907,0,31,0c17.094,0,31,13.906,31,31S48.094,62,31,62z M31,12
		c-10.477,0-19,8.523-19,19s8.523,19,19,19s19-8.523,19-19S41.477,12,31,12z"/>
</g>
<g id="椭圆_31-3" transform="translate(578.348 340.869) rotate(-8)">
	<circle fill="#B6BDC6" cx="31" cy="31" r="31"/>
	<path fill="#3D3D63" d="M26.654,61.697C11.458,59.561,0,46.364,0.001,31C0,13.907,13.906,0,31.001,0
		c1.454,0,2.916,0.102,4.346,0.303C50.542,2.439,62,15.636,62,31c0.001,17.093-13.906,31-31,31
		C29.546,62,28.084,61.898,26.654,61.697z M33.676,12.186C32.797,12.063,31.897,11.999,31,12C20.523,12.001,12,20.523,12,31
		c0,9.418,7.017,17.505,16.324,18.813C29.203,49.937,30.103,50.001,31,50c5.075-0.001,9.847-1.977,13.436-5.565
		C48.024,40.846,50,36.075,50,31C50,21.582,42.982,13.494,33.676,12.186z"/>
</g>
</svg>
